<?xml version="1.0" ?><!DOCTYPE svg  PUBLIC '-//W3C//DTD SVG 1.1//EN'  'http://www.w3.org/Graphics/SVG/1.1/DTD/svg11.dtd'><svg enable-background="new 0 0 85 78" height="78px" id="Layer_1" version="1.1" viewBox="0 0 85 78" width="85px" xml:space="preserve" xmlns="http://www.w3.org/2000/svg" xmlns:xlink="http://www.w3.org/1999/xlink"><g><path d="M30.211,72.152c4.933-4.933,4.933-12.931,0-17.863c-4.933-4.934-12.931-4.934-17.864,0   c-1.849,1.849-3.004,4.129-3.467,6.516c-3.34,7.414-9.037,8.37-9.037,8.37c15.482,15.482,28.583,4.765,28.583,4.765l-0.142-0.207   C28.964,73.277,29.611,72.753,30.211,72.152z" /><g><rect height="45.995" transform="matrix(-0.7071 -0.7072 0.7072 -0.7071 67.8154 91.4106)" width="22" x="41.842" y="8.661"/><path d="M82.834,6.502l-4.967-4.967C75.125-1.208,70.233-1.29,67.49,1.454l-3.338,3.337l15.557,15.557l3.338-3.338    C85.79,14.267,85.578,9.246,82.834,6.502z"/></g></g></svg>