<?xml version="1.0" ?><!DOCTYPE svg  PUBLIC '-//W3C//DTD SVG 1.1//EN'  'http://www.w3.org/Graphics/SVG/1.1/DTD/svg11.dtd'><svg enable-background="new 0 0 34 34" height="34px" id="Layer_1" version="1.1" viewBox="0 0 34 34" width="34px" xml:space="preserve" xmlns="http://www.w3.org/2000/svg" xmlns:xlink="http://www.w3.org/1999/xlink"><g><polygon points="22.658,14.619 24.868,12.409 27.078,10.199 29.288,7.989 29.385,7.893 32.905,11.413 33.212,1.303    23.101,1.61 26.622,5.13 26.525,5.227 24.315,7.437 22.105,9.646 19.896,11.856 19.563,12.19 22.324,14.952  "/><polygon points="12.596,9.646 10.386,7.437 8.176,5.227 8.08,5.13 11.6,1.61 1.489,1.303 1.796,11.413 5.317,7.893    5.414,7.989 7.623,10.199 9.833,12.409 12.042,14.619 12.377,14.952 15.139,12.19 14.806,11.856  "/><polygon points="29.385,26.436 29.288,26.34 27.078,24.13 24.868,21.92 22.658,19.709 22.324,19.376 19.563,22.139    19.896,22.472 22.105,24.682 24.315,26.892 26.525,29.102 26.622,29.198 23.101,32.719 33.212,33.025 32.905,22.916  "/><polygon points="12.042,19.709 9.833,21.92 7.623,24.13 5.414,26.34 5.317,26.437 1.796,22.916 1.489,33.025    11.6,32.719 8.079,29.198 8.176,29.102 10.386,26.892 12.596,24.682 14.806,22.472 15.139,22.139 12.377,19.376  "/></g></svg>